<svg width="200" height="22" xmlns="http://www.w3.org/2000/svg"><g fill="#313131" fill-rule="evenodd"><path d="M5.512 11.603l8.404-8.572a2.98 2.98 0 012.14-.903c.81 0 1.57.32 2.14.903l.654.668 1.31-1.336-.655-.668A4.797 4.797 0 0016.055.24a4.8 4.8 0 00-3.45 1.455l-8.403 8.572 1.31 1.336z"/><path d="M16.73 5.862l-1.31-1.336-8.404 8.572a2.989 2.989 0 01-4.28 0 3.134 3.134 0 010-4.365l7.252-7.397L8.678 0l-7.25 7.396c-1.904 1.94-1.904 5.098 0 7.039a4.797 4.797 0 003.45 1.454c1.303 0 2.53-.517 3.448-1.455l8.404-8.572zm8.365 1.534a4.796 4.796 0 00-3.45-1.455c-1.304 0-2.53.517-3.45 1.456L9.793 15.97l1.31 1.335 8.403-8.572a2.99 2.99 0 014.28 0 3.1 3.1 0 01.886 2.183 3.1 3.1 0 01-.886 2.184l-7.25 7.395 1.31 1.336 7.25-7.395c1.902-1.94 1.902-5.098 0-7.039v-.001z"/><path d="M21.01 10.228L12.606 18.8a2.987 2.987 0 01-4.28 0l-.655-.668-1.31 1.337.656.667a4.798 4.798 0 003.45 1.455 4.799 4.799 0 003.45-1.455l8.403-8.572-1.31-1.336zm14.953 1.402h3.5l-.577-1.717a137.39 137.39 0 01-.915-2.756h-.458c-.236.678-.443 1.31-.945 2.756l-.605 1.716v.001zm-3.352 4.17l3.765-10.284h2.79L42.888 15.8v.527h-1.83l-1.064-3.087h-4.59l-1.064 3.087h-1.727V15.8h-.002zm21.687-2.318c-.65 1.701-2.17 3.057-4.665 3.057-3.16 0-5.21-2.38-5.21-5.602 0-3.223 2.051-5.632 5.24-5.632 2.318 0 3.927 1.19 4.577 3.012l-1.876.376c-.502-1.1-1.447-1.777-2.73-1.777-2.097 0-3.293 1.762-3.293 4.02 0 2.275 1.255 3.991 3.366 3.991 1.373 0 2.26-.783 2.746-1.762l1.845.317zm9.005-1.371V5.516h1.86v6.64c0 3.133-1.609 4.413-4.266 4.413-2.658 0-4.267-1.28-4.267-4.412V5.516h1.86v6.595c0 1.958.9 2.907 2.407 2.907 1.506 0 2.406-.949 2.406-2.907zm5.063 4.217h1.86V5.516h-1.86v10.812zm7.337-9.141h-3.056V5.516h7.928v1.671H77.55v9.141h-1.846V7.187zm9.817 5.12l-3.41-6.174v-.617h1.742l1.166 2.198c.635 1.19.871 1.747 1.491 2.876.59-1.099 1.108-2.048 1.506-2.846l1.152-2.228h1.653v.617l-3.44 6.174v4.021h-1.86v-4.021zm12.622.949c.207 1.07 1.048 1.732 2.333 1.732 1.269 0 2.007-.663 2.007-1.642 0-.979-.752-1.235-1.978-1.58l-.797-.227c-1.89-.542-3.04-1.415-3.04-3.132 0-1.807 1.446-3.102 3.763-3.102 2.171 0 3.499 1.144 3.721 2.906l-1.772.15c-.221-.903-.856-1.43-2.008-1.43-1.077 0-1.727.572-1.727 1.37 0 .904.738 1.19 1.949 1.582l.753.24c1.904.603 3.071 1.205 3.071 3.088 0 2.018-1.654 3.358-4.001 3.358-2.185 0-3.736-1.04-4.075-3.148l1.801-.165zm18.188.226c-.649 1.701-2.17 3.057-4.665 3.057-3.16 0-5.212-2.38-5.212-5.602 0-3.223 2.052-5.632 5.24-5.632 2.32 0 3.929 1.19 4.578 3.012l-1.875.376c-.501-1.1-1.448-1.777-2.731-1.777-2.097 0-3.293 1.762-3.293 4.02 0 2.275 1.255 3.991 3.366 3.991 1.374 0 2.26-.783 2.747-1.762l1.845.317zm4.28-1.898v4.744h-1.845V5.516h1.845v4.412h4.739V5.516h1.845v10.812h-1.845v-4.744h-4.739zm9.891-6.068h6.864v1.656h-5.048v2.816h4.696v1.641h-4.696v3.042h5.152v1.657h-6.968V5.516zm11.633 9.185h1.609c2.17 0 3.573-1.099 3.573-3.81 0-2.605-1.138-3.764-4.179-3.764h-1.003V14.701zm-1.845-9.185h3.454c1.58 0 2.865.36 3.765 1.054 1.152.888 1.742 2.334 1.742 4.246 0 1.657-.442 3.057-1.373 4.036-.886.934-2.244 1.476-4.164 1.476h-3.424V5.516zm18.262 6.595V5.516h1.859v6.64c0 3.133-1.61 4.413-4.267 4.413-2.656 0-4.266-1.28-4.266-4.412V5.516h1.859v6.595c0 1.958.902 2.907 2.407 2.907 1.506 0 2.408-.949 2.408-2.907zm5.062-6.595h1.859v9.155h4.815v1.657h-6.674V5.516zm9.137 10.812h1.861V5.516h-1.861v10.812zm5.168-10.812h2.332l3.47 6.159c.383.692.87 1.626 1.211 2.274h.028c-.018-.979-.027-1.958-.028-2.937V5.516h1.8v10.812h-2.273l-3.41-5.948c-.576-1.01-1.064-1.973-1.344-2.455h-.03c0 .497.044 1.611.044 2.455v5.948h-1.8V5.516zm21.51 5.104l.531.678c-.075 3.419-2.303 5.24-5.137 5.24-3.219 0-5.391-2.273-5.391-5.601 0-3.238 2.068-5.632 5.36-5.632 2.421 0 4.061 1.28 4.74 3.027l-1.891.36c-.472-1.083-1.49-1.776-2.834-1.776-2.2 0-3.469 1.671-3.469 3.99 0 2.365 1.283 4.021 3.485 4.021 1.948 0 3.025-1.16 3.231-2.74h-4.117V10.62h5.492z"/></g></svg>